<svg width="6" height="10" viewBox="0 0 6 10" fill="none" xmlns="http://www.w3.org/2000/svg">
<path d="M5.56641 5.58203C5.66406 5.50391 5.72266 5.38672 5.72266 5.25C5.72266 5.13281 5.66406 5.01562 5.56641 4.91797L1.77734 1.12891C1.67969 1.05078 1.5625 0.992188 1.44531 0.992188C1.30859 0.992188 1.19141 1.05078 1.11328 1.12891L0.683594 1.55859C0.585938 1.65625 0.527344 1.77344 0.527344 1.89062C0.527344 2.02734 0.566406 2.14453 0.664062 2.22266L3.69141 5.25L0.664062 8.27734C0.566406 8.375 0.527344 8.49219 0.527344 8.60938C0.527344 8.74609 0.585938 8.86328 0.683594 8.94141L1.11328 9.37109C1.19141 9.46875 1.30859 9.50781 1.44531 9.50781C1.5625 9.50781 1.67969 9.46875 1.77734 9.37109L5.56641 5.58203Z" fill="#15204F"/>
</svg>
