<svg width="40" height="36" viewBox="0 0 40 36" fill="none" xmlns="http://www.w3.org/2000/svg">
<path d="M1 30.9187V1.02625C2.8697 0.956246 7.33775 0.947335 12.3858 2.05439C17.1813 3.10607 19.2638 4.14012 20 4.58828V33.6638C19.998 33.6699 19.992 33.6837 19.9766 33.7057C19.943 33.7537 19.8785 33.8174 19.781 33.8743C19.6842 33.9307 19.5811 33.9649 19.4925 33.9765C19.4033 33.9881 19.3583 33.9738 19.349 33.9698C18.0017 33.4042 15.933 32.7138 12.8142 32.0298C7.6515 30.8976 3.0841 30.8832 1.05181 30.9522C1.03742 30.9526 1.02268 30.9477 1.01023 30.9359C1.00442 30.9304 1.00179 30.9257 1.00087 30.9237C1.00035 30.9225 1 30.9217 1 30.9187ZM20.0009 33.6603C20.001 33.6604 20.0009 33.6609 20.0006 33.662L20.0009 33.6603Z" stroke="#15204F" stroke-width="2"/>
<path d="M39 30.9187V1.02627C37.1303 0.956268 32.6623 0.947358 27.6142 2.05441C22.8187 3.10609 20.7362 4.14014 20 4.5883V33.6639C20.002 33.6699 20.008 33.6837 20.0234 33.7057C20.057 33.7537 20.1215 33.8174 20.219 33.8743C20.3158 33.9307 20.4189 33.9649 20.5075 33.9765C20.5967 33.9882 20.6417 33.9738 20.651 33.9699C21.9983 33.4042 24.067 32.7138 27.1858 32.0299C32.3485 30.8977 36.9159 30.8833 38.9482 30.9522C38.9626 30.9527 38.9773 30.9477 38.9898 30.9359C38.9956 30.9304 38.9982 30.9258 38.9991 30.9237C38.9997 30.9225 39 30.9217 39 30.9187ZM19.9991 33.6604C19.999 33.6605 19.9992 33.661 19.9994 33.662L19.9991 33.6604Z" stroke="#15204F" stroke-width="2"/>
<path d="M35 8.98047C35 8.98047 31.568 9.13135 29.0417 9.6457C26.5153 10.16 24 10.976 24 10.976" stroke="#15204F" stroke-width="2" stroke-linecap="round"/>
<path d="M35 14.9668C35 14.9668 31.568 15.1177 29.0417 15.632C26.5153 16.1464 24 16.9624 24 16.9624" stroke="#15204F" stroke-width="2" stroke-linecap="round"/>
<path d="M5 14.9668C5 14.9668 8.432 15.1177 10.9583 15.632C13.4847 16.1464 16 16.9624 16 16.9624" stroke="#15204F" stroke-width="2" stroke-linecap="round"/>
<path d="M35 20.9531C35 20.9531 31.568 21.104 29.0417 21.6184C26.5153 22.1327 24 22.9487 24 22.9487" stroke="#15204F" stroke-width="2" stroke-linecap="round"/>
<path d="M5 8.98047C5 8.98047 8.432 9.13135 10.9583 9.6457C13.4847 10.16 16 10.976 16 10.976" stroke="#15204F" stroke-width="2" stroke-linecap="round"/>
<path d="M5 20.9531C5 20.9531 8.432 21.104 10.9583 21.6184C13.4847 22.1327 16 22.9487 16 22.9487" stroke="#15204F" stroke-width="2" stroke-linecap="round"/>
</svg>
