<svg width="31" height="42" viewBox="0 0 31 42" fill="none" xmlns="http://www.w3.org/2000/svg">
<path d="M18.2222 40.9816C22.1364 40.9816 29.1818 36.7117 29.1818 28.1719C29.1818 19.6322 20.1793 13.0333 17.048 7.98707C14.5429 3.9501 17.048 1.77634 18.6136 1C5.77525 1 7.78451 10.3161 10.3939 14.9741C5.69697 11.5582 2.04377 13.8096 1 15.3623C2.95707 14.9741 7.26263 17.3032 5.69697 20.7967C4.70465 23.0109 1.64428 26.2311 1.78283 30.8891C1.92137 35.5472 5.30556 41.3697 11.9596 40.9816" stroke="#15204F" stroke-width="2" stroke-linecap="round" stroke-linejoin="round"/>
<path d="M11.135 41C9.50609 40.1064 7.00002 39.0851 7 34.4894C6.99998 29.8936 11.135 26.4468 11.135 26.4468C10.8844 27.4681 10.5122 30.2766 12.6387 30.2766C14.5183 30.2766 14.8942 25.4255 14.5183 23C16.2725 23.6383 17.9015 26.0638 18.6533 27.9787C18.9295 28.6823 19.1796 30.2766 19.0292 31.4255C18.8789 32.5745 18.7302 34.1064 20.157 34.1064C21.5838 34.1064 22 29.5319 22 28C23.0024 30.1702 25 37.5 21.5 40" stroke="#15204F" stroke-width="2" stroke-linecap="round" stroke-linejoin="round"/>
</svg>
